<svg xmlns="http://www.w3.org/2000/svg" viewBox="0 0 240 24" width="240" height="24"><path d="M3 18h18v-2H3v2zm0-5h18v-2H3v2zm0-7v2h18V6H3zM27 18h18v-2H27v2zm0-5h18v-2H27v2zm0-7v2h18V6H27zM51 18h18v-2H51v2zm0-5h18v-2H51v2zm0-7v2h18V6H51zM75 18h18v-2H75v2zm0-5h18v-2H75v2zm0-7v2h18V6H75zM99 18h18v-2H99v2zm0-5h18v-2H99v2zm0-7v2h18V6H99zM123 18h18v-2h-18v2zm0-5h18v-2h-18v2zm0-7v2h18V6h-18zM147 18h15.5v-2H147v2zm0-5h14v-2h-14v2zm0-7v2h15.5V6H147zm16.197 7.098l-.705.705-2.5-2.5 2.5-2.5.705.705-1.79 1.795 1.79 1.795M171 18h13.931v-2H171v2zm0-5h11.49v-2H171v2zm0-7v2h13.931V6H171zm17.329 8.662l-1.148 1.147-4.069-4.069 4.069-4.069 1.148 1.148-2.914 2.921 2.914 2.922M195 18h13.205v-2H195v2zm0-5h10.328v-2H195v2zm0-7v2h13.205V6H195zm17.852 9.386l-1.352 1.352-4.795-4.795 4.795-4.795 1.352 1.352-3.433 3.443 3.433 3.443M219 18h13v-2h-13v2zm0-5h10v-2h-10v2zm0-7v2h13V6h-13zm18 9.59L235.59 17l-5-5 5-5L237 8.41 233.42 12l3.58 3.59" fill="#fff"/></svg>